<svg width="77" height="79" viewBox="0 0 77 79" fill="none" xmlns="http://www.w3.org/2000/svg">
<g clip-path="url(#clip0_38_183)">
<path d="M15.4721 68.6462C20.5754 64.5683 25.3047 60.7457 30.098 56.9856C30.4721 56.7303 31.1046 56.851 32.3634 56.7144C30.6354 58.9986 29.4056 60.9003 27.9195 62.552C23.955 66.8725 19.9244 71.0045 15.8318 75.2C15.3357 75.7085 14.9038 76.2795 14.2795 76.6631C12.3469 78.0033 10.6995 77.5128 10.0938 75.1852C9.823 74.0527 9.6783 72.919 9.65967 71.7844C9.58932 67.4978 9.64505 63.2102 9.70079 58.9226C9.68837 58.1661 10.0542 57.4065 10.3498 56.2061C13.7418 59.2669 11.4764 63.3839 13.3575 66.5834C13.7874 65.8863 14.2194 65.3153 14.5253 64.7453C26.526 42.9564 43.7191 26.3566 64.9512 13.8208C67.136 12.4785 69.5151 11.4497 71.8301 10.3584C73.0186 9.78101 74.4676 9.70578 75.0608 11.2769C75.7161 12.7845 74.848 13.6745 73.4073 14.254C57.1814 20.6322 44.8229 32.1476 33.1094 44.5402C26.9726 50.9595 21.6005 57.8767 17.0595 65.4805C16.5076 66.4308 16.0198 67.4437 15.4721 68.6462Z" fill="white"/>
</g>
<defs>
<clipPath id="clip0_38_183">
<rect width="91.9239" height="17.2095" fill="white" transform="translate(0.330872 66.4769) rotate(-45.7113)"/>
</clipPath>
</defs>
</svg>
