<svg width="110" height="129" viewBox="0 0 110 129" fill="none" xmlns="http://www.w3.org/2000/svg">
<g clip-path="url(#clip0_38_174)">
<path d="M69.8681 119.406C70.6234 119.311 70.9067 119.406 71.1899 119.311C88.4681 108.852 100.176 94.0182 104.613 74.05C105.746 69.0104 105.557 63.7806 104.236 58.6459C101.498 47.6158 92.3392 40.0089 81.1036 39.3433C75.2498 38.963 69.5848 39.6286 64.4864 42.8615C64.1087 45.619 63.8254 48.3765 63.2589 50.9439C62.3148 55.1277 60.1432 58.5508 56.2721 60.6427C53.4397 62.2592 50.6072 62.2592 49.0965 60.7378C47.1138 58.741 47.1138 56.0786 48.3412 53.8916C50.0407 50.8488 52.1178 47.9962 54.2894 45.3338C55.7056 43.6222 57.594 42.1959 59.2934 40.7696C57.6884 30.0248 47.5858 25.4606 35.5005 29.9297C35.1229 31.4511 34.7452 33.0676 34.2731 34.589C32.3848 40.1991 28.8914 44.478 23.2264 46.4748C21.0548 47.2355 18.6944 47.5208 16.8061 45.5239C15.3899 44.0026 15.3899 41.3401 16.9005 38.6777C19.3553 34.4939 23.0376 31.5462 27.0031 28.9788C28.4193 28.1231 29.8356 27.2673 31.2518 26.5066C29.3635 9.86641 14.5401 -1.92435 0 4.73172C0.0944163 3.49559 -5.76834e-06 2.44964 0.37766 1.87912C0.849741 1.21351 1.88832 0.833163 2.73807 0.64299C10.7635 -0.878398 18.2223 0.0724679 24.3594 5.96785C28.9858 10.3418 32.1016 15.6667 34.1787 21.7523C34.462 22.608 34.7452 23.4638 35.1229 24.3196C35.1229 24.4147 35.3117 24.5098 35.6894 24.795C36.5391 24.6999 37.5777 24.6999 38.6163 24.5098C51.2681 22.5129 57.8772 25.9361 63.731 37.8219C64.864 37.4416 66.1858 37.0612 67.4133 36.5858C74.6833 34.1135 81.9534 33.9234 89.3179 36.3956C101.309 40.3893 109.051 50.7537 109.901 63.8757C110.373 71.0072 109.145 77.8534 106.596 84.5095C100.365 100.579 90.1676 113.226 74.8721 121.498C74.1168 121.974 73.2671 122.354 72.5117 122.829C72.4173 122.925 72.3229 123.115 72.0397 123.685C75.2498 124.446 78.2711 124.161 81.2925 123.971C84.2194 123.875 87.2407 123.59 90.4508 123.4C90.1676 125.872 88.8458 126.823 87.2407 127.394C85.3524 127.964 83.464 128.725 81.5757 128.82C76.4772 129.01 71.2843 129.105 66.0914 128.82C62.0315 128.535 60.8985 126.348 62.6924 123.02C66.5635 115.983 70.529 108.947 74.4945 101.91C75.1554 100.769 76.0052 99.8185 77.0437 98.4873C78.8376 100.579 78.0823 102.101 77.4214 103.527C74.7777 108.662 72.4173 113.796 69.8681 119.406ZM19.6386 42.6713C26.1533 41.8156 30.2132 37.6317 30.4965 31.7364C26.1533 34.589 21.999 37.1563 19.6386 42.6713ZM51.5513 57.4098C57.1219 56.0786 59.7656 52.2751 59.1991 46.4748C55.6112 49.5176 52.4955 52.3702 51.5513 57.4098Z" fill="white"/>
</g>
<defs>
<clipPath id="clip0_38_174">
<rect width="110" height="129" fill="white"/>
</clipPath>
</defs>
</svg>
