<svg width="1368" height="1368" viewBox="0 0 1368 1368" fill="none" xmlns="http://www.w3.org/2000/svg">
<path d="M5.54591 614.432C41.2898 263.288 337.313 1.51496 682.734 1.00076L682.711 2.17163C515.305 2.44422 354.251 64.4382 229.132 176.817C102.91 290.179 23.9058 445.647 6.72692 614.546C-2.57676 706.027 6.31417 796.623 33.1466 883.788C59.0579 967.969 100.561 1045.42 156.479 1114C212.396 1182.59 279.906 1238.83 357.132 1281.19C437.121 1325.04 524.033 1352 615.546 1361.3C638.726 1363.65 662.191 1364.86 685.34 1364.86C853.098 1364.86 1014.54 1302.84 1139.9 1190.25C1266.12 1076.88 1345.13 921.416 1362.3 752.485C1371.61 660.973 1362.72 570.409 1335.88 483.243C1309.97 399.063 1268.47 321.614 1212.55 253.027C1156.63 184.44 1089.13 128.203 1011.9 85.8429L1011.47 86.6214L1011.9 85.8428C931.91 41.9901 844.998 15.0308 753.485 5.72709L753.395 6.61254L753.485 5.72706C730.64 3.41131 707.518 2.20581 684.755 2.17149V1.00083C707.517 1.03621 730.436 2.20787 753.601 4.54617C1128.56 42.698 1401.61 377.608 1363.42 752.568C1327.68 1104.07 1031.14 1366 685.308 1366C662.196 1366 638.893 1364.83 615.4 1362.45C240.439 1324.3 -32.6056 989.393 5.54591 614.432Z" stroke="white" stroke-width="2"/>
<path d="M746.414 12.2271L746.413 12.2269C727.293 10.3213 707.95 9.33663 688.86 9.33663C535.278 9.33663 387.338 71.5644 272.286 184.489C156.408 298.175 84.0495 453.702 68.4922 622.324L69.4879 622.416L68.4921 622.324C60.142 713.096 68.3014 802.793 92.7821 888.904C116.405 972.094 154.224 1048.43 205.095 1115.88C255.966 1183.29 317.354 1238.4 387.577 1279.62C460.279 1322.28 539.273 1348.16 622.396 1356.55C641.485 1358.45 660.86 1359.44 679.982 1359.44C833.531 1359.44 981.472 1297.21 1096.52 1184.29C1212.4 1070.6 1284.76 915.106 1300.32 746.452C1308.67 655.68 1300.51 565.983 1276.03 479.871C1252.4 396.714 1214.62 320.345 1163.71 252.898C1112.84 185.482 1051.46 130.38 981.232 89.1549L980.726 90.0173L981.232 89.1547C908.531 46.4996 829.537 20.6124 746.414 12.2271ZM67.3447 622.222L66.3489 622.13L67.3447 622.222C99.7083 271.447 372.146 8.16589 688.828 8.16589C707.914 8.16589 727.159 9.11546 746.53 11.0779L746.53 11.0779C1087.27 45.3859 1335.82 374.615 1301.5 746.585C1269.13 1097.36 996.696 1360.64 680.013 1360.64C660.927 1360.64 641.683 1359.69 622.312 1357.73C281.574 1323.39 33.0168 994.16 67.3447 622.222Z" stroke="white" stroke-width="2"/>
<mask id="path-3-inside-1_107_83" fill="white">
<path d="M692.95 14.2683V17.439C708.296 17.439 723.865 18.2 739.274 19.7537C813.882 27.1732 884.78 51.9367 950.065 93.3782C1013.16 133.425 1068.33 187.264 1114.12 253.405C1159.9 319.61 1193.96 394.757 1215.3 476.815C1237.4 561.791 1244.85 650.477 1237.4 740.399C1223.51 908.575 1157.97 1063.88 1052.86 1177.77C948.48 1290.87 814.548 1353.18 675.733 1353.18C660.355 1353.18 644.755 1352.41 629.377 1350.86C554.801 1343.44 483.872 1318.68 418.586 1277.24C355.488 1237.19 300.318 1183.35 254.532 1117.21C208.747 1051 174.693 975.858 153.354 893.799C131.254 808.823 123.803 720.138 131.254 630.216C145.142 462.072 210.681 306.737 315.791 192.844C420.171 79.744 554.072 17.4708 692.918 17.439L692.982 14.2683M692.918 14.2683C405.174 14.2683 157.095 279.5 128.115 629.962C97.5807 999.29 321.879 1323.43 629.06 1354C644.723 1355.55 660.26 1356.31 675.733 1356.31C963.477 1356.31 1211.56 1091.08 1240.54 740.621C1271.07 371.325 1046.77 47.1489 739.592 16.5829C723.928 15.0293 708.391 14.2683 692.918 14.2683Z"/>
</mask>
<path d="M692.95 17.439H690.95V19.439H692.95V17.439ZM739.274 19.7537L739.074 21.7436L739.077 21.7439L739.274 19.7537ZM950.065 93.3782L948.993 95.0667L948.993 95.0668L950.065 93.3782ZM1114.12 253.405L1115.76 252.268L1115.76 252.267L1114.12 253.405ZM1215.3 476.815L1213.36 477.319L1213.36 477.319L1215.3 476.815ZM1237.4 740.399L1235.4 740.234L1235.4 740.234L1237.4 740.399ZM1052.86 1177.77L1054.33 1179.13L1054.33 1179.13L1052.86 1177.77ZM629.377 1350.86L629.578 1348.87L629.575 1348.87L629.377 1350.86ZM418.586 1277.24L419.658 1275.55L419.658 1275.55L418.586 1277.24ZM254.532 1117.21L252.887 1118.35L252.888 1118.35L254.532 1117.21ZM153.354 893.799L155.29 893.296L155.29 893.296L153.354 893.799ZM131.254 630.216L133.247 630.381L133.247 630.38L131.254 630.216ZM315.791 192.844L314.321 191.488L314.321 191.488L315.791 192.844ZM692.918 17.439L692.919 19.439L694.879 19.4386L694.918 17.479L692.918 17.439ZM128.115 629.962L126.122 629.797L126.122 629.797L128.115 629.962ZM629.06 1354L628.862 1355.99L628.862 1355.99L629.06 1354ZM1240.54 740.621L1242.53 740.786L1242.53 740.786L1240.54 740.621ZM739.592 16.5829L739.79 14.5928L739.789 14.5927L739.592 16.5829ZM690.95 14.2683V17.439H694.95V14.2683H690.95ZM692.95 19.439C708.231 19.439 723.732 20.1968 739.074 21.7436L739.475 17.7638C723.997 16.2032 708.362 15.439 692.95 15.439V19.439ZM739.077 21.7439C813.363 29.1315 883.963 53.7872 948.993 95.0667L951.137 91.6897C885.596 50.0862 814.401 25.2149 739.472 17.7635L739.077 21.7439ZM948.993 95.0668C1011.85 134.959 1066.83 188.605 1112.47 254.544L1115.76 252.267C1069.84 185.923 1014.48 131.89 951.137 91.6896L948.993 95.0668ZM1112.47 254.543C1158.12 320.545 1192.08 395.475 1213.36 477.319L1217.23 476.312C1195.84 394.038 1161.69 318.675 1115.76 252.268L1112.47 254.543ZM1213.36 477.319C1235.4 562.071 1242.84 650.53 1235.4 740.234L1239.39 740.564C1246.86 650.423 1239.39 561.512 1217.23 476.312L1213.36 477.319ZM1235.4 740.234C1221.55 908.007 1156.17 1062.88 1051.39 1176.41L1054.33 1179.13C1159.77 1064.88 1225.47 909.142 1239.39 740.563L1235.4 740.234ZM1051.39 1176.41C947.343 1289.15 813.925 1351.18 675.733 1351.18V1355.18C815.17 1355.18 949.617 1292.59 1054.33 1179.13L1051.39 1176.41ZM675.733 1351.18C660.42 1351.18 644.887 1350.42 629.578 1348.87L629.176 1352.85C644.622 1354.41 660.29 1355.18 675.733 1355.18V1351.18ZM629.575 1348.87C555.32 1341.48 484.688 1316.83 419.658 1275.55L417.514 1278.92C483.055 1320.53 554.282 1345.4 629.179 1352.85L629.575 1348.87ZM419.658 1275.55C356.803 1235.66 301.822 1182.01 256.177 1116.07L252.888 1118.35C298.813 1184.69 354.174 1238.72 417.514 1278.93L419.658 1275.55ZM256.177 1116.07C210.532 1050.07 176.573 975.139 155.29 893.296L151.418 894.303C172.813 976.576 206.962 1051.94 252.887 1118.35L256.177 1116.07ZM155.29 893.296C133.248 808.544 125.814 720.084 133.247 630.381L129.261 630.051C121.791 720.191 129.26 809.103 151.418 894.303L155.29 893.296ZM133.247 630.38C147.102 462.639 212.48 307.736 317.261 194.201L314.321 191.488C208.881 305.738 143.182 461.504 129.261 630.051L133.247 630.38ZM317.261 194.201C421.308 81.4613 554.694 19.4706 692.919 19.439L692.918 15.439C553.449 15.4709 419.035 78.0268 314.321 191.488L317.261 194.201ZM694.918 17.479L694.981 14.3083L690.982 14.2283L690.919 17.399L694.918 17.479ZM692.918 12.2683C403.852 12.2683 155.163 278.605 126.122 629.797L130.108 630.127C159.028 280.396 406.496 16.2683 692.918 16.2683V12.2683ZM126.122 629.797C95.5263 999.865 320.278 1325.28 628.862 1355.99L629.258 1352.01C323.48 1321.58 99.6351 998.714 130.108 630.127L126.122 629.797ZM628.862 1355.99C644.591 1357.55 660.194 1358.31 675.733 1358.31V1354.31C660.326 1354.31 644.855 1353.56 629.257 1352.01L628.862 1355.99ZM675.733 1358.31C964.8 1358.31 1213.49 1091.98 1242.53 740.786L1238.54 740.456C1209.62 1090.19 962.155 1354.31 675.733 1354.31V1358.31ZM1242.53 740.786C1273.12 370.75 1048.37 45.2983 739.79 14.5928L739.394 18.5731C1045.17 48.9994 1269.02 371.901 1238.54 740.456L1242.53 740.786ZM739.789 14.5927C724.06 13.0325 708.457 12.2683 692.918 12.2683V16.2683C708.326 16.2683 723.796 17.026 739.394 18.5732L739.789 14.5927Z" fill="white" mask="url(#path-3-inside-1_107_83)"/>
<mask id="path-5-inside-2_107_83" fill="white">
<path d="M695.93 21.3074V24.4781C707.948 24.4781 720.155 25.0806 732.235 26.2537C798.44 32.722 861.38 56.4391 919.372 96.6758C975.463 135.581 1024.55 188.278 1065.29 253.247C1149.19 387.052 1188.31 557.923 1175.44 734.375C1163.2 902.297 1104.54 1057.69 1010.28 1171.97C916.677 1285.42 796.728 1347.91 672.594 1347.91C660.545 1347.91 648.306 1347.31 636.257 1346.14C570.052 1339.67 507.113 1315.95 449.12 1275.75C393.03 1236.84 343.947 1184.14 303.203 1119.18C219.305 985.37 180.178 814.499 193.052 638.048C205.291 470.125 263.949 314.727 358.215 200.454C451.815 86.9733 571.764 24.5098 695.899 24.4781V21.3074M695.899 21.3074C438.118 21.3074 215.374 288.062 189.881 637.762C163.183 1003.98 362.908 1322.51 635.908 1349.28C648.211 1350.48 660.387 1351.08 672.562 1351.08C930.343 1351.08 1153.09 1084.33 1178.58 734.628C1205.28 368.408 1005.55 49.844 732.552 23.1147C720.25 21.9098 708.074 21.3074 695.899 21.3074Z"/>
</mask>
<path d="M695.93 24.4781H693.93V26.4781H695.93V24.4781ZM732.235 26.2537L732.43 24.2632L732.429 24.2631L732.235 26.2537ZM919.372 96.6758L918.232 98.319L918.233 98.3192L919.372 96.6758ZM1065.29 253.247L1066.98 252.184L1066.98 252.184L1065.29 253.247ZM1175.44 734.375L1173.45 734.229L1173.45 734.229L1175.44 734.375ZM1010.28 1171.97L1011.82 1173.24L1011.82 1173.24L1010.28 1171.97ZM636.257 1346.14L636.063 1348.13L636.063 1348.13L636.257 1346.14ZM449.12 1275.75L447.98 1277.39L447.981 1277.39L449.12 1275.75ZM303.203 1119.18L301.508 1120.24L301.509 1120.24L303.203 1119.18ZM193.052 638.048L195.046 638.193L195.046 638.193L193.052 638.048ZM358.215 200.454L359.758 201.727L359.758 201.727L358.215 200.454ZM695.899 24.4781L695.899 26.4781L697.899 26.4776V24.4781H695.899ZM189.881 637.762L191.876 637.908L191.876 637.908L189.881 637.762ZM635.908 1349.28L635.713 1351.27L635.713 1351.27L635.908 1349.28ZM1178.58 734.628L1176.59 734.483L1176.59 734.483L1178.58 734.628ZM732.552 23.1147L732.358 25.1052L732.358 25.1052L732.552 23.1147ZM693.93 21.3074V24.4781H697.93V21.3074H693.93ZM695.93 26.4781C707.881 26.4781 720.024 27.0773 732.042 28.2444L732.429 24.2631C720.285 23.0838 708.014 22.4781 695.93 22.4781V26.4781ZM732.041 28.2442C797.884 34.6772 860.501 58.2641 918.232 98.319L920.512 95.0326C862.258 54.6142 798.996 30.7668 732.43 24.2632L732.041 28.2442ZM918.233 98.3192C974.074 137.052 1022.98 189.541 1063.6 254.309L1066.98 252.184C1026.11 187.016 976.851 134.11 920.512 95.0324L918.233 98.3192ZM1063.6 254.309C1147.24 387.711 1186.29 558.148 1173.45 734.229L1177.44 734.52C1190.34 557.697 1151.13 386.393 1066.98 252.184L1063.6 254.309ZM1173.45 734.229C1161.23 901.796 1102.7 1056.78 1008.73 1170.7L1011.82 1173.24C1106.39 1058.6 1165.17 902.797 1177.44 734.52L1173.45 734.229ZM1008.73 1170.7C915.437 1283.78 796.019 1345.91 672.594 1345.91V1349.91C797.438 1349.91 917.918 1287.06 1011.82 1173.24L1008.73 1170.7ZM672.594 1345.91C660.611 1345.91 648.436 1345.31 636.451 1344.15L636.063 1348.13C648.176 1349.31 660.479 1349.91 672.594 1349.91V1345.91ZM636.452 1344.15C570.608 1337.71 507.991 1314.13 450.26 1274.1L447.981 1277.39C506.235 1317.78 569.496 1341.62 636.063 1348.13L636.452 1344.15ZM450.26 1274.1C394.418 1235.37 345.516 1182.88 304.897 1118.11L301.509 1120.24C342.378 1185.41 391.642 1238.31 447.98 1277.39L450.26 1274.1ZM304.897 1118.11C221.253 984.711 182.2 814.274 195.046 638.193L191.057 637.902C178.157 814.725 217.358 986.029 301.508 1120.24L304.897 1118.11ZM195.046 638.193C207.259 470.626 265.791 315.638 359.758 201.727L356.672 199.181C262.108 313.817 203.322 469.625 191.057 637.902L195.046 638.193ZM359.758 201.727C453.056 88.6125 572.474 26.5096 695.899 26.4781L695.898 22.4781C571.055 22.51 450.575 85.3342 356.672 199.181L359.758 201.727ZM697.899 24.4781V21.3074H693.899V24.4781H697.899ZM695.899 19.3074C436.625 19.3074 213.418 287.382 187.886 637.617L191.876 637.908C217.329 288.741 439.611 23.3074 695.899 23.3074V19.3074ZM187.886 637.617C174.509 821.115 217.85 992.733 298.813 1121.88C379.774 1251.02 498.45 1337.81 635.713 1351.27L636.104 1347.29C500.367 1333.98 382.679 1248.12 302.202 1119.75C221.728 991.388 178.555 820.629 191.876 637.908L187.886 637.617ZM635.713 1351.27C648.079 1352.48 660.32 1353.08 672.562 1353.08V1349.08C660.453 1349.08 648.342 1348.48 636.103 1347.29L635.713 1351.27ZM672.562 1353.08C931.836 1353.08 1155.04 1085.01 1180.57 734.774L1176.59 734.483C1151.13 1083.65 928.85 1349.08 672.562 1349.08V1353.08ZM1180.57 734.774C1193.95 551.275 1150.61 379.65 1069.65 250.5C988.687 121.354 870.011 34.5636 732.747 21.1242L732.358 25.1052C868.094 38.3951 985.781 124.251 1066.26 252.625C1146.73 380.995 1189.91 551.761 1176.59 734.483L1180.57 734.774ZM732.747 21.1242C720.382 19.9131 708.141 19.3074 695.899 19.3074V23.3074C708.008 23.3074 720.119 23.9065 732.358 25.1052L732.747 21.1242Z" fill="white" mask="url(#path-5-inside-2_107_83)"/>
<mask id="path-7-inside-3_107_83" fill="white">
<path d="M697.77 28.283V31.4537C706.838 31.4537 716.065 31.8976 725.165 32.7854C782.936 38.3342 837.948 60.9416 888.616 99.9733C937.699 137.769 980.694 189.293 1016.4 253.088C1089.99 384.579 1124.42 553.389 1113.42 728.382C1102.86 896.082 1051.21 1051.57 967.98 1166.23C885.35 1280.03 779.701 1342.71 670.47 1342.71C661.37 1342.71 652.143 1342.27 643.043 1341.38C585.272 1335.83 530.26 1313.22 479.591 1274.19C430.508 1236.4 387.513 1184.87 351.81 1121.08C278.218 989.587 243.783 820.777 254.786 645.784C265.344 478.084 316.996 322.591 400.228 207.937C482.857 94.1392 588.506 31.4537 697.738 31.4537V28.283M697.738 28.283C470.428 28.283 273.588 296.622 251.647 645.594C228.818 1008.71 403.937 1321.66 642.789 1344.55C652.079 1345.44 661.306 1345.88 670.533 1345.88C897.843 1345.88 1094.68 1077.54 1116.62 728.572C1139.45 365.459 964.334 52.5074 725.482 29.6147C716.192 28.7269 706.965 28.283 697.738 28.283Z"/>
</mask>
<path d="M697.77 31.4537H695.77V33.4537H697.77V31.4537ZM725.165 32.7854L724.971 34.776L724.974 34.7762L725.165 32.7854ZM888.616 99.9733L887.396 101.558L887.396 101.558L888.616 99.9733ZM1016.4 253.088L1014.65 254.065L1014.65 254.065L1016.4 253.088ZM1113.42 728.382L1115.42 728.507L1115.42 728.507L1113.42 728.382ZM967.98 1166.23L969.598 1167.4L969.598 1167.4L967.98 1166.23ZM643.043 1341.38L643.237 1339.39L643.234 1339.39L643.043 1341.38ZM479.591 1274.19L480.812 1272.61L480.811 1272.61L479.591 1274.19ZM351.81 1121.08L353.556 1120.1L353.556 1120.1L351.81 1121.08ZM254.786 645.784L252.79 645.658L252.79 645.659L254.786 645.784ZM400.228 207.937L398.609 206.762L398.609 206.762L400.228 207.937ZM697.738 31.4537V33.4537H699.738V31.4537H697.738ZM251.647 645.594L249.651 645.468L249.651 645.468L251.647 645.594ZM642.789 1344.55L642.598 1346.54L642.599 1346.54L642.789 1344.55ZM1116.62 728.572L1118.62 728.697L1118.62 728.697L1116.62 728.572ZM725.482 29.6147L725.673 27.6238L725.672 27.6237L725.482 29.6147ZM695.77 28.283V31.4537H699.77V28.283H695.77ZM697.77 33.4537C706.774 33.4537 715.936 33.8945 724.971 34.776L725.359 30.7949C716.194 29.9007 706.902 29.4537 697.77 29.4537V33.4537ZM724.974 34.7762C782.332 40.2855 836.994 62.7314 887.396 101.558L889.837 98.3889C838.902 59.1517 783.539 36.3829 725.356 30.7946L724.974 34.7762ZM887.396 101.558C936.23 139.161 979.058 190.464 1014.65 254.065L1018.14 252.112C982.331 188.122 939.169 136.376 889.837 98.3887L887.396 101.558ZM1014.65 254.065C1088.03 385.168 1122.41 553.583 1111.43 728.256L1115.42 728.507C1126.44 553.195 1091.95 383.99 1018.14 252.111L1014.65 254.065ZM1111.43 728.256C1100.89 895.649 1049.33 1050.76 966.361 1165.05L969.598 1167.4C1053.09 1052.39 1104.84 896.515 1115.42 728.507L1111.43 728.256ZM966.361 1165.05C883.989 1278.5 778.882 1340.71 670.47 1340.71V1344.71C780.521 1344.71 886.712 1281.56 969.598 1167.4L966.361 1165.05ZM670.47 1340.71C661.434 1340.71 652.272 1340.27 643.237 1339.39L642.848 1343.37C652.014 1344.27 661.305 1344.71 670.47 1344.71V1340.71ZM643.234 1339.39C585.875 1333.88 531.213 1311.43 480.812 1272.61L478.371 1275.78C529.306 1315.01 584.669 1337.78 642.851 1343.37L643.234 1339.39ZM480.811 1272.61C431.978 1235 389.15 1183.7 353.556 1120.1L350.065 1122.05C385.876 1186.04 429.038 1237.79 478.371 1275.78L480.811 1272.61ZM353.556 1120.1C280.18 988.998 245.8 820.583 256.782 645.91L252.79 645.659C241.767 820.971 276.255 990.176 350.065 1122.05L353.556 1120.1ZM256.782 645.91C267.321 478.517 318.876 323.406 401.846 209.112L398.609 206.762C315.116 321.776 263.368 477.651 252.79 645.658L256.782 645.91ZM401.846 209.112C484.219 95.6677 589.326 33.4537 697.738 33.4537V29.4537C587.686 29.4537 481.495 92.6106 398.609 206.762L401.846 209.112ZM699.738 31.4537V28.283H695.738V31.4537H699.738ZM697.738 26.283C583.244 26.283 476.669 93.8589 396.061 204.899C315.441 315.955 260.642 470.66 249.651 645.468L253.643 645.719C264.593 471.557 319.185 317.606 399.298 207.249C479.421 96.8768 584.921 30.283 697.738 30.283V26.283ZM249.651 645.468C238.215 827.36 276.349 996.767 347.342 1123.63C418.322 1250.47 522.303 1335.01 642.598 1346.54L642.98 1342.56C524.424 1331.2 421.418 1247.81 350.833 1121.68C280.26 995.565 242.249 826.94 253.643 645.719L249.651 645.468ZM642.599 1346.54C651.951 1347.44 661.242 1347.88 670.533 1347.88V1343.88C661.371 1343.88 652.207 1343.44 642.979 1342.56L642.599 1346.54ZM670.533 1347.88C785.027 1347.88 891.601 1280.31 972.21 1169.27C1052.83 1058.21 1107.63 903.506 1118.62 728.697L1114.63 728.446C1103.68 902.609 1049.09 1056.56 968.973 1166.92C888.849 1277.29 783.35 1343.88 670.533 1343.88V1347.88ZM1118.62 728.697C1130.06 546.806 1091.92 377.398 1020.93 250.534C949.949 123.693 845.968 39.1535 725.673 27.6238L725.291 31.6055C843.847 42.9686 946.852 126.351 1017.44 252.487C1088.01 378.601 1126.02 547.226 1114.63 728.446L1118.62 728.697ZM725.672 27.6237C716.32 26.73 707.029 26.283 697.738 26.283V30.283C706.9 30.283 716.064 30.7237 725.292 31.6056L725.672 27.6237Z" fill="white" mask="url(#path-7-inside-3_107_83)"/>
<path d="M718.25 38.2898L718.249 38.2897C711.688 37.6845 705.031 37.3659 698.467 37.3659C603.911 37.3659 512.513 100.557 441.043 214.858C368.99 330.098 324.47 485.891 315.617 653.5C306.176 832.519 338.864 998.744 399.313 1122.61C459.745 1246.45 548.038 1328.16 649.894 1337.65C656.456 1338.26 663.113 1338.58 669.677 1338.58C764.233 1338.58 855.631 1275.38 927.101 1161.08C999.154 1045.84 1043.67 890.05 1052.53 722.442C1061.97 543.423 1029.28 377.198 968.831 253.327C908.399 129.492 820.106 47.7855 718.25 38.2898ZM440.064 214.25C509.149 103.744 600.152 36.6542 697.467 36.1975V36.2269H698.467C705.097 36.2269 711.724 36.511 718.38 37.1419L718.382 37.1421C820.216 46.6393 908.786 127.88 969.563 251.959C1030.32 376.004 1063.19 542.666 1053.7 722.526C1044.51 896.495 997.386 1050.87 928.08 1161.73C858.758 1272.61 767.369 1339.78 669.677 1339.78C663.047 1339.78 656.42 1339.49 649.764 1338.86C547.928 1329.37 459.358 1248.12 398.581 1124.05C337.821 1000 304.954 833.339 314.443 653.478C323.631 479.494 370.758 325.108 440.064 214.25Z" stroke="white" stroke-width="2"/>
<mask id="path-10-inside-4_107_83" fill="white">
<path d="M697.96 42.0439V45.2147C702.304 45.2147 706.743 45.4049 711.118 45.8171C879.706 60.9098 1004.6 361.749 989.572 716.428C982.47 883.685 945.277 1039.43 884.875 1155C824.979 1269.53 748.692 1332.6 669.994 1332.6C665.618 1332.6 661.179 1332.41 656.835 1332C488.247 1316.9 363.352 1016.06 378.381 661.384C385.484 494.128 422.676 338.381 483.079 222.839C542.942 108.312 619.262 45.2464 697.96 45.2464V42.0757M697.96 42.0757C533.05 42.0757 389.954 313.776 375.21 661.257C360.054 1018.16 486.028 1319.88 656.55 1335.13C661.052 1335.55 665.523 1335.74 669.994 1335.74C834.904 1335.74 977.999 1064.04 992.743 716.555C1007.9 359.657 881.926 57.9293 711.404 42.6781C706.901 42.2659 702.43 42.0757 697.96 42.0757Z"/>
</mask>
<path d="M697.96 45.2147H695.96V47.2147H697.96V45.2147ZM711.118 45.8171L710.931 47.8083L710.94 47.8092L711.118 45.8171ZM989.572 716.428L991.571 716.513L991.571 716.513L989.572 716.428ZM884.875 1155L886.647 1155.93L886.647 1155.93L884.875 1155ZM656.835 1332L657.024 1330L657.014 1330L656.835 1332ZM378.381 661.384L376.383 661.299L376.383 661.299L378.381 661.384ZM483.079 222.839L484.851 223.766L484.851 223.766L483.079 222.839ZM697.96 45.2464V47.2464H699.96V45.2464H697.96ZM375.21 661.257L377.209 661.342L377.209 661.342L375.21 661.257ZM656.55 1335.13L656.732 1333.14L656.728 1333.14L656.55 1335.13ZM992.743 716.555L990.745 716.47L990.745 716.47L992.743 716.555ZM711.404 42.6781L711.221 44.6698L711.225 44.6701L711.404 42.6781ZM695.96 42.0439V45.2147H699.96V42.0439H695.96ZM697.96 47.2147C702.246 47.2147 706.623 47.4025 710.931 47.8083L711.306 43.8259C706.863 43.4074 702.361 43.2147 697.96 43.2147V47.2147ZM710.94 47.8092C794.06 55.2504 867.003 133.275 917.355 254.545C967.641 375.657 995.079 539.236 987.574 716.343L991.571 716.513C999.095 538.941 971.6 374.761 921.049 253.011C870.563 131.419 796.764 51.4765 711.297 43.8251L710.94 47.8092ZM987.574 716.343C980.481 883.386 943.336 1038.83 883.102 1154.08L886.647 1155.93C947.219 1040.03 984.459 883.983 991.571 716.513L987.574 716.343ZM883.102 1154.08C823.316 1268.4 747.548 1330.6 669.994 1330.6V1334.6C749.835 1334.6 826.643 1270.67 886.647 1155.93L883.102 1154.08ZM669.994 1330.6C665.675 1330.6 661.299 1330.41 657.024 1330L656.646 1333.99C661.059 1334.4 665.561 1334.6 669.994 1334.6V1330.6ZM657.014 1330C573.893 1322.56 500.951 1244.54 450.599 1123.27C400.313 1002.16 372.874 838.576 380.379 661.469L376.383 661.299C368.858 838.871 396.353 1003.05 446.905 1124.8C497.39 1246.39 571.189 1326.34 656.657 1333.99L657.014 1330ZM380.379 661.469C387.473 494.426 424.618 338.984 484.851 223.766L481.306 221.913C420.735 337.778 383.494 493.829 376.383 661.299L380.379 661.469ZM484.851 223.766C544.606 109.448 620.406 47.2464 697.96 47.2464V43.2464C618.118 43.2464 541.279 107.177 481.306 221.913L484.851 223.766ZM699.96 45.2464V42.0757H695.96V45.2464H699.96ZM697.96 40.0757C614.344 40.0757 536.827 108.89 478.5 220.434C420.105 332.11 380.594 487.206 373.212 661.173L377.209 661.342C384.571 487.827 423.979 333.333 482.045 222.288C540.18 111.111 616.665 44.0757 697.96 44.0757V40.0757ZM373.212 661.172C365.624 839.854 393.357 1004.81 444.405 1127.08C495.389 1249.2 569.944 1329.4 656.372 1337.13L656.728 1333.14C572.634 1325.62 498.94 1247.33 448.096 1125.54C397.316 1003.91 369.64 839.558 377.209 661.342L373.212 661.172ZM656.368 1337.13C660.934 1337.54 665.466 1337.74 669.994 1337.74V1333.74C665.58 1333.74 661.17 1333.55 656.732 1333.14L656.368 1337.13ZM669.994 1337.74C753.609 1337.74 831.126 1268.92 889.453 1157.38C947.848 1045.7 987.36 890.606 994.741 716.64L990.745 716.47C983.383 889.985 943.974 1044.48 885.908 1155.52C827.774 1266.7 751.288 1333.74 669.994 1333.74V1337.74ZM994.741 716.64C1002.33 537.958 974.596 373 923.548 250.728C872.564 128.61 798.01 48.416 711.582 40.686L711.225 44.6701C795.32 52.1914 869.013 130.487 919.857 252.269C970.637 373.899 998.313 538.254 990.745 716.47L994.741 716.64ZM711.586 40.6864C707.019 40.2683 702.487 40.0757 697.96 40.0757V44.0757C702.373 44.0757 706.783 44.2635 711.221 44.6698L711.586 40.6864Z" fill="white" mask="url(#path-10-inside-4_107_83)"/>
<path d="M601.874 97.6688C631.13 67.0445 662.666 50.1737 695.184 49.8346V51.0053C663.654 51.3363 632.694 67.3139 603.681 97.2922C574.362 127.586 546.963 172.24 522.869 229.746L522.869 229.746C474.202 345.937 444.445 501.97 439.116 669.12C433.659 839.951 454.15 1002.7 496.845 1127.39C517.541 1187.83 542.353 1236.05 570.577 1270.61C599.47 1306.02 630.769 1325.48 663.569 1328.24L663.579 1328.24C666.196 1328.43 668.885 1328.56 671.516 1328.56C703.391 1328.56 734.699 1312.56 764.019 1282.26C793.338 1251.97 820.737 1207.32 844.831 1149.81C893.498 1033.62 923.255 877.586 928.584 710.436C934.04 539.605 913.55 376.851 870.855 252.162C850.159 191.723 825.347 143.505 797.122 108.948C768.23 73.5328 736.931 54.078 704.131 51.3206L704.121 51.3198C701.835 51.1526 699.494 51.0335 697.184 51.0061V49.8351C699.54 49.8618 701.881 49.9819 704.25 50.1747C737.975 53.0057 769.655 73.4455 798.061 108.224C826.465 143 851.519 192.024 871.983 251.799C912.909 371.343 935.413 533.695 929.756 710.499C924.21 883.785 892.653 1038.72 845.908 1150.29C822.533 1206.08 795.382 1250.98 765.826 1281.92C736.27 1312.86 704.387 1329.76 671.516 1329.76C668.821 1329.76 666.154 1329.63 663.451 1329.41C629.725 1326.58 598.045 1306.14 569.639 1271.36C541.235 1236.59 516.181 1187.56 495.717 1127.79C454.791 1008.24 432.287 845.893 437.944 669.089C443.49 495.803 475.047 340.872 521.792 229.298C545.167 173.508 572.318 128.607 601.874 97.6688Z" stroke="white" stroke-width="2"/>
<path d="M692.204 56.5606C667.929 57.0112 644.289 73.8557 622.294 104.563C600.019 135.662 579.581 180.78 562.029 236.773C526.929 348.745 503.435 503.981 499.742 676.91C496.018 852.2 513.341 1012.4 544.345 1129.7C559.849 1188.35 578.759 1236.22 600.134 1269.88C621.529 1303.58 645.251 1322.82 670.317 1324.69C670.319 1324.69 670.32 1324.69 670.322 1324.69L692.204 56.5606ZM692.204 56.5606V57.7314M692.204 56.5606V57.7314M692.204 57.7314C668.569 58.1749 645.378 74.3354 623.237 105.257C601.082 136.197 580.877 180.572 563.137 237.126C526.542 353.798 504.466 509.993 500.913 676.931C497.297 846.312 513.123 1007.01 545.463 1129.39L546.43 1129.13L545.463 1129.39C561.14 1188.7 579.849 1235.77 601.106 1269.24C622.691 1303.26 645.978 1321.7 670.395 1323.51C671.68 1323.61 673.006 1323.67 674.338 1323.67C698.318 1323.67 721.852 1307.5 744.304 1276.14C766.459 1245.23 786.664 1200.82 804.404 1144.27C840.999 1027.6 863.076 871.402 866.628 704.464C870.244 535.083 854.418 374.387 822.078 252.008C806.401 192.697 787.693 145.629 766.436 112.152L692.204 57.7314ZM694.204 56.5625C695.205 56.5843 696.211 56.6368 697.222 56.7073L766.436 112.152C744.85 78.1366 721.564 59.6945 697.146 57.8833L697.145 57.8833C696.166 57.8116 695.18 57.7573 694.204 57.7342V56.5625Z" stroke="white" stroke-width="2"/>
<mask id="path-14-inside-5_107_83" fill="white">
<path d="M688.86 62.1782V65.3489C689.272 65.3489 689.652 65.3489 690.065 65.3806C720.916 67.0928 750.879 135.137 772.314 252.01C794.318 371.991 805.448 530.559 803.704 698.482C801.96 865.167 787.692 1021.48 763.531 1138.61C740.035 1252.54 709.026 1317.89 678.523 1317.89C678.111 1317.89 677.73 1317.89 677.318 1317.85C646.467 1316.14 616.503 1248.1 595.069 1131.22C573.064 1011.24 561.935 852.675 563.679 684.784C565.423 518.098 579.691 361.781 603.852 244.654C627.347 130.73 658.357 65.3806 688.86 65.3806V62.2099M688.86 62.2099C621.418 62.2099 564.091 339.491 560.508 684.752C556.894 1032.36 609.084 1317.22 677.128 1321.02C677.604 1321.02 678.047 1321.06 678.491 1321.06C745.933 1321.06 803.26 1043.78 806.843 698.513C810.457 350.906 758.267 66.0465 690.223 62.2416C689.748 62.2416 689.304 62.2099 688.86 62.2099Z"/>
</mask>
<path d="M688.86 65.3489H686.86V67.3489H688.86V65.3489ZM690.065 65.3806L689.911 67.3747L689.932 67.3764L689.954 67.3775L690.065 65.3806ZM772.314 252.01L770.346 252.371L770.346 252.371L772.314 252.01ZM803.704 698.482L805.704 698.503L805.704 698.502L803.704 698.482ZM763.531 1138.61L761.572 1138.21L761.572 1138.21L763.531 1138.61ZM677.318 1317.85L677.472 1315.86L677.45 1315.86L677.429 1315.86L677.318 1317.85ZM595.069 1131.22L597.036 1130.86L597.036 1130.86L595.069 1131.22ZM563.679 684.784L561.679 684.763L561.679 684.763L563.679 684.784ZM603.852 244.654L605.811 245.058L605.811 245.058L603.852 244.654ZM688.86 65.3806V67.3806H690.86V65.3806H688.86ZM560.508 684.752L562.508 684.773L562.508 684.773L560.508 684.752ZM677.128 1321.02L677.016 1323.02L677.072 1323.02H677.128V1321.02ZM806.843 698.513L804.843 698.493L804.843 698.493L806.843 698.513ZM690.223 62.2416L690.335 60.2447L690.279 60.2416H690.223V62.2416ZM686.86 62.1782V65.3489H690.86V62.1782H686.86ZM688.86 67.3489C689.282 67.3489 689.587 67.3498 689.911 67.3747L690.218 63.3865C689.718 63.348 689.262 63.3489 688.86 63.3489V67.3489ZM689.954 67.3775C696.918 67.7641 704.117 71.9114 711.42 80.1547C718.711 88.3847 725.92 100.496 732.89 116.316C746.827 147.946 759.642 194.002 770.346 252.371L774.281 251.649C763.551 193.145 750.667 146.743 736.551 114.704C729.495 98.6899 722.088 86.1644 714.414 77.5023C706.752 68.8535 698.636 63.8533 690.175 63.3837L689.954 67.3775ZM770.346 252.371C792.321 372.189 803.447 530.622 801.704 698.461L805.704 698.502C807.449 530.497 796.316 371.793 774.281 251.649L770.346 252.371ZM801.704 698.461C799.961 865.064 785.699 1021.25 761.572 1138.21L765.489 1139.02C789.684 1021.72 803.959 865.271 805.704 698.503L801.704 698.461ZM761.572 1138.21C749.838 1195.1 736.251 1239.74 721.848 1270.11C714.643 1285.3 707.282 1296.82 699.925 1304.51C692.56 1312.21 685.39 1315.89 678.523 1315.89V1319.89C686.907 1319.89 695.052 1315.39 702.815 1307.28C710.585 1299.15 718.164 1287.21 725.462 1271.83C740.062 1241.04 753.728 1196.05 765.489 1139.02L761.572 1138.21ZM678.523 1315.89C678.101 1315.89 677.796 1315.88 677.472 1315.86L677.165 1319.85C677.665 1319.89 678.12 1319.89 678.523 1319.89V1315.89ZM677.429 1315.86C670.464 1315.47 663.266 1311.32 655.963 1303.08C648.672 1294.85 641.463 1282.74 634.493 1266.92C620.556 1235.29 607.741 1189.23 597.036 1130.86L593.102 1131.58C603.832 1190.09 616.715 1236.49 630.832 1268.53C637.888 1284.54 645.295 1297.07 652.969 1305.73C660.631 1314.38 668.746 1319.38 677.207 1319.85L677.429 1315.86ZM597.036 1130.86C575.061 1011.05 563.936 852.612 565.679 684.805L561.679 684.763C559.934 852.737 571.067 1011.44 593.102 1131.58L597.036 1130.86ZM565.679 684.805C567.422 518.202 581.684 362.021 605.811 245.058L601.893 244.25C577.699 361.542 563.424 517.995 561.679 684.763L565.679 684.805ZM605.811 245.058C617.545 188.164 631.132 143.523 645.535 113.153C652.74 97.9616 660.101 86.4445 667.458 78.754C674.823 71.0557 681.993 67.3806 688.86 67.3806V63.3806C680.475 63.3806 672.331 67.8742 664.568 75.9889C656.798 84.1115 649.219 96.0518 641.921 111.439C627.32 142.224 613.655 187.22 601.893 244.25L605.811 245.058ZM690.86 65.3806V62.2099H686.86V65.3806H690.86ZM688.86 60.2099C679.694 60.2099 670.938 64.9279 662.695 73.4043C654.452 81.88 646.555 94.2765 639.05 110.071C624.036 141.672 610.396 187.301 598.778 243.604C575.535 356.243 560.301 512.013 558.508 684.732L562.508 684.773C564.299 512.23 579.519 356.729 602.696 244.412C614.287 188.237 627.849 142.967 642.663 111.788C650.073 96.1931 657.747 84.2298 665.562 76.193C673.377 68.1568 681.165 64.2099 688.86 64.2099V60.2099ZM558.508 684.732C556.7 858.625 568.849 1016.87 589.979 1132.18C600.541 1189.81 613.365 1236.81 627.862 1269.69C635.108 1286.13 642.816 1299.13 650.945 1308.19C659.069 1317.23 667.783 1322.5 677.016 1323.02L677.24 1319.03C669.462 1318.59 661.66 1314.13 653.921 1305.51C646.186 1296.9 638.681 1284.31 631.522 1268.08C617.208 1235.61 604.452 1188.96 593.913 1131.45C572.841 1016.47 560.702 858.488 562.508 684.773L558.508 684.732ZM677.128 1323.02C677.326 1323.02 677.522 1323.03 677.751 1323.04C677.97 1323.05 678.228 1323.06 678.491 1323.06V1319.06C678.311 1319.06 678.125 1319.05 677.892 1319.04C677.67 1319.03 677.406 1319.02 677.128 1319.02V1323.02ZM678.491 1323.06C687.657 1323.06 696.414 1318.34 704.656 1309.86C712.899 1301.39 720.796 1288.99 728.301 1273.19C743.315 1241.59 756.955 1195.97 768.573 1139.66C791.816 1027.02 807.05 871.253 808.843 698.534L804.843 698.493C803.052 871.036 787.832 1026.54 764.655 1138.85C753.064 1195.03 739.502 1240.3 724.688 1271.48C717.278 1287.07 709.604 1299.04 701.789 1307.07C693.974 1315.11 686.186 1319.06 678.491 1319.06V1323.06ZM808.843 698.534C810.651 524.641 798.503 366.391 777.372 251.091C766.81 193.456 753.986 146.454 739.489 113.575C732.243 97.1406 724.536 84.1317 716.406 75.0801C708.282 66.0337 699.568 60.761 690.335 60.2447L690.111 64.2385C697.889 64.6734 705.691 69.1348 713.43 77.7528C721.165 86.3656 728.67 98.9512 735.829 115.189C750.143 147.653 762.899 194.305 773.438 251.812C794.51 366.794 806.649 524.778 804.843 698.493L808.843 698.534ZM690.223 60.2416C690.025 60.2416 689.829 60.235 689.6 60.227C689.381 60.2193 689.123 60.2099 688.86 60.2099V64.2099C689.04 64.2099 689.226 64.2163 689.459 64.2245C689.682 64.2323 689.945 64.2416 690.223 64.2416V60.2416Z" fill="white" mask="url(#path-14-inside-5_107_83)"/>
<path d="M677.636 72.6577C679.221 71.0188 680.736 70.1199 682.184 69.8389V71.0455C680.842 71.3922 679.034 72.5019 676.894 75.3431C674.169 78.9634 670.801 85.5221 667.055 97.3529C659.559 121.025 650.467 166.078 642.111 251.691C630.597 369.431 624.35 526.005 624.445 692.553L625.445 692.552L624.445 692.553C624.572 859.069 631.041 1015.64 642.682 1133.38L643.677 1133.28L642.682 1133.38C651.149 1218.98 660.289 1264.02 667.808 1287.68C671.566 1299.5 674.94 1306.06 677.671 1309.67C680.406 1313.29 682.6 1314.1 683.977 1314.1L683.985 1314.1C685.35 1314.09 687.537 1313.28 690.267 1309.65C692.992 1306.03 696.36 1299.47 700.106 1287.65C707.602 1263.98 716.693 1218.93 725.05 1133.32C736.564 1015.58 742.811 859.004 742.716 692.457C742.589 525.941 736.12 369.367 724.479 251.626L723.484 251.725L724.479 251.626C716.012 166.03 706.872 120.993 699.353 97.332C695.595 85.5073 692.221 78.9534 689.49 75.3365C687.344 72.4945 685.531 71.3885 684.184 71.044V69.8378C685.633 70.1172 687.15 71.0146 688.737 72.6522C690.694 74.6711 692.672 77.7306 694.648 81.8364C698.596 90.0429 702.434 102.21 706.106 117.965C713.446 149.46 720.075 195.078 725.656 251.498C736.817 364.327 743.776 520.23 743.887 692.458C743.998 864.686 737.237 1020.6 726.219 1133.45C720.709 1189.88 714.138 1235.51 706.837 1267.02C703.185 1282.78 699.363 1294.95 695.424 1303.16C693.453 1307.27 691.48 1310.33 689.525 1312.35C687.571 1314.37 685.723 1315.27 683.977 1315.27C682.23 1315.27 680.38 1314.38 678.424 1312.36C676.467 1310.34 674.489 1307.28 672.513 1303.17C668.564 1294.97 664.727 1282.8 661.055 1267.04C653.715 1235.55 647.086 1189.93 641.505 1133.51C630.344 1020.68 623.385 864.78 623.274 692.552C623.163 520.323 629.924 364.405 640.942 251.556C646.452 195.126 653.023 149.497 660.324 117.992C663.976 102.232 667.798 90.0596 671.737 81.8485C673.707 77.7403 675.681 74.6786 677.636 72.6577Z" stroke="white" stroke-width="2"/>
</svg>
