<svg width="173" height="174" viewBox="0 0 173 174" fill="none" xmlns="http://www.w3.org/2000/svg">
<g filter="url(#filter0_d_107_60)">
<path d="M106.842 46.9709H45.8873V151.542H106.842V46.9709Z" fill="#00D1FF"/>
<path d="M45.8873 46.9709L2 24.7564V128.769L45.8873 151.542V46.9709Z" fill="#2C3F81"/>
<path d="M151 24.7564L106.842 46.9709V151.542L151 128.769V76.7625V24.7564Z" fill="#2C3F81"/>
<path d="M45.8873 46.9709H106.842L151 24.7564L106.842 2H45.8873L2 24.7564L45.8873 46.9709Z" fill="#2C3F81"/>
<path d="M45.8873 46.9709H106.842M45.8873 46.9709L2 24.7564M45.8873 46.9709V151.542M106.842 46.9709L151 24.7564M106.842 46.9709V151.542M106.842 151.542H45.8873M106.842 151.542L151 128.769V76.7625V24.7564M45.8873 151.542L2 128.769V24.7564M151 24.7564L106.842 2H45.8873L2 24.7564" stroke="white" stroke-width="3" stroke-linejoin="round"/>
<path d="M22.7593 118.612L37.3969 110.965" stroke="white" stroke-width="4" stroke-linecap="round" stroke-linejoin="round"/>
<path d="M2.90491 128.806L9.33553 125.528" stroke="white" stroke-width="4" stroke-linecap="round" stroke-linejoin="round"/>
<path d="M131.146 118.612L116.508 110.965" stroke="white" stroke-width="4" stroke-linecap="round" stroke-linejoin="round"/>
<path d="M151 128.806L144.569 125.528" stroke="white" stroke-width="4" stroke-linecap="round" stroke-linejoin="round"/>
<path d="M52.7791 106.778H70.6669" stroke="white" stroke-width="4" stroke-linecap="round"/>
<path d="M82.4827 106.778H100.042" stroke="white" stroke-width="4" stroke-linecap="round"/>
</g>
<defs>
<filter id="filter0_d_107_60" x="0.5" y="0.5" width="172.5" height="172.542" filterUnits="userSpaceOnUse" color-interpolation-filters="sRGB">
<feFlood flood-opacity="0" result="BackgroundImageFix"/>
<feColorMatrix in="SourceAlpha" type="matrix" values="0 0 0 0 0 0 0 0 0 0 0 0 0 0 0 0 0 0 127 0" result="hardAlpha"/>
<feOffset dx="20" dy="20"/>
<feComposite in2="hardAlpha" operator="out"/>
<feColorMatrix type="matrix" values="0 0 0 0 0 0 0 0 0 0 0 0 0 0 0 0 0 0 0.3 0"/>
<feBlend mode="normal" in2="BackgroundImageFix" result="effect1_dropShadow_107_60"/>
<feBlend mode="normal" in="SourceGraphic" in2="effect1_dropShadow_107_60" result="shape"/>
</filter>
</defs>
</svg>
