<svg width="398" height="632" viewBox="0 0 398 632" fill="none" xmlns="http://www.w3.org/2000/svg">
<g clip-path="url(#clip0_107_6)">
<path d="M390.528 -129.964C358.995 -108.033 338.322 -71.2161 335.995 -32.8898C334.947 -15.6556 337.4 1.7674 334.905 18.8549C329.957 52.6106 306.579 80.4537 283.013 105.131C259.447 129.808 233.952 154.59 222.756 186.816C215.837 206.754 214.915 228.224 215.103 249.337C215.292 270.261 216.487 291.165 218.71 311.984" stroke="white" stroke-width="4" stroke-miterlimit="10"/>
<path d="M318.886 -151.391C291.169 -124.806 276.514 -85.2006 280.225 -46.9792C281.902 -29.7868 287.039 -12.9719 287.248 4.28333C287.647 38.3954 268.903 69.5513 249.488 97.6251C230.073 125.699 208.772 154.15 202.754 187.738C199.043 208.516 201.496 229.859 204.977 250.679C208.436 271.31 212.881 291.773 218.332 311.984" stroke="white" stroke-width="4" stroke-miterlimit="10"/>
<path d="M244.771 -161.371C221.561 -130.781 213.279 -89.3729 222.924 -52.1997C227.264 -35.4896 234.979 -19.6811 237.873 -2.65649C243.597 30.9734 229.969 64.6871 215.187 95.4236C200.406 126.181 183.801 157.631 183.13 191.743C182.711 212.835 188.476 233.549 195.165 253.572C201.811 273.406 209.401 292.926 217.955 312.026" stroke="white" stroke-width="4" stroke-miterlimit="10"/>
<path d="M170.005 -159.61C151.869 -125.749 150.15 -83.5652 165.497 -48.3629C172.395 -32.5334 182.48 -18.1296 188.015 -1.7759C198.938 30.5541 190.741 65.9661 180.949 98.6524C171.158 131.339 159.69 164.99 164.344 198.808C167.217 219.712 176.148 239.273 185.898 257.975C195.563 276.53 206.13 294.624 217.557 312.152" stroke="white" stroke-width="4" stroke-miterlimit="10"/>
<path d="M96.4345 -146.191C83.8128 -109.92 88.7189 -67.9873 109.392 -35.5945C118.68 -21.0439 130.903 -8.38026 138.912 6.90414C154.763 37.1375 152.205 73.3881 147.655 107.207C143.105 141.025 137.025 176.06 146.921 208.725C153.043 228.916 164.91 246.842 177.469 263.804C189.923 280.619 203.174 296.826 217.2 312.362" stroke="white" stroke-width="4" stroke-miterlimit="10"/>
<path d="M25.8621 -121.43C19.069 -83.6281 30.4747 -42.9746 55.9487 -14.2298C67.3963 -1.31464 81.4436 9.27332 91.759 23.132C112.138 50.5139 115.283 86.7226 116.08 120.835C116.877 154.947 116.352 190.506 131.238 221.2C140.443 240.196 154.972 256.025 170.026 270.827C184.954 285.483 200.595 299.425 216.865 312.571" stroke="white" stroke-width="4" stroke-miterlimit="10"/>
<path d="M-39.951 -85.9135C-40.7477 -47.5243 -23.1151 -9.15603 6.5312 15.2696C19.8657 26.235 35.4017 34.4957 47.7509 46.5723C72.1556 70.4319 80.9404 105.697 87.0416 139.264C93.1638 172.831 98.2166 208.033 117.715 236.023C129.771 253.341 146.607 266.718 163.778 278.962C180.803 291.123 198.435 302.423 216.571 312.865" stroke="white" stroke-width="4" stroke-miterlimit="10"/>
<path d="M-99.4113 -40.5635C-94.1907 -2.50973 -70.7714 32.6297 -37.6657 52.0864C-22.7796 60.8293 -6.15338 66.5531 7.93594 76.554C35.7791 96.2832 49.9523 129.766 61.2531 161.95C72.5539 194.154 83.058 228.119 106.687 252.733C121.3 267.955 140.023 278.522 158.914 287.936C177.637 297.266 196.821 305.694 216.361 313.158" stroke="white" stroke-width="4" stroke-miterlimit="10"/>
<path d="M-151.051 13.5504C-139.939 50.3043 -111.32 81.3553 -75.5726 95.4026C-59.5125 101.713 -42.1734 104.775 -26.7003 112.427C3.88945 127.565 23.1155 158.406 39.3224 188.43C55.5293 218.454 71.1911 250.385 98.4053 270.974C115.22 283.722 135.369 291.227 155.496 297.58C175.456 303.87 195.71 309.196 216.194 313.515" stroke="white" stroke-width="4" stroke-miterlimit="10"/>
<path d="M-193.571 75.0654C-176.84 109.639 -143.713 135.826 -106.204 144.107C-89.3474 147.839 -71.7567 148.133 -55.2773 153.27C-22.6957 163.438 1.12195 190.883 21.8156 218.013C42.5093 245.144 62.9933 274.203 93.0799 290.305C111.677 300.264 132.748 304.52 153.63 307.644C174.324 310.747 195.165 312.823 216.068 313.892" stroke="white" stroke-width="4" stroke-miterlimit="10"/>
<path d="M-225.964 142.472C-204.033 174.005 -167.216 194.678 -128.89 197.005C-111.655 198.053 -94.2325 195.6 -77.145 198.095C-43.3894 203.043 -15.5462 226.421 9.13108 249.987C33.8084 273.553 58.5904 299.048 90.8156 310.244C110.754 317.163 132.224 318.085 153.337 317.897C174.261 317.708 195.165 316.513 215.984 314.29" stroke="white" stroke-width="4" stroke-miterlimit="10"/>
<path d="M-247.391 214.114C-220.806 241.831 -181.201 256.486 -142.979 252.775C-125.787 251.098 -108.972 245.961 -91.7166 245.752C-57.6045 245.353 -26.4487 264.097 1.62512 283.512C29.6989 302.927 58.1501 324.228 91.7381 330.246C112.516 333.957 133.859 331.504 154.679 328.023C175.31 324.564 195.773 320.119 215.984 314.668" stroke="white" stroke-width="4" stroke-miterlimit="10"/>
<path d="M-257.371 288.229C-226.781 311.439 -185.373 319.721 -148.2 310.076C-131.49 305.736 -115.681 298.021 -98.6565 295.127C-65.0266 289.403 -31.3129 303.031 -0.57634 317.813C30.1602 332.594 61.6305 349.199 95.7426 349.87C116.835 350.289 137.549 344.524 157.572 337.835C177.406 331.189 196.926 323.599 216.026 315.045" stroke="white" stroke-width="4" stroke-miterlimit="10"/>
<path d="M-255.61 362.995C-221.749 381.131 -179.565 382.85 -144.363 367.503C-128.533 360.605 -114.13 350.52 -97.7759 344.985C-65.4459 334.061 -30.0339 342.259 2.65248 352.051C35.3389 361.842 68.9897 373.31 102.808 368.656C123.712 365.783 143.273 356.852 161.975 347.103C180.53 337.437 198.624 326.87 216.152 315.443" stroke="white" stroke-width="4" stroke-miterlimit="10"/>
<path d="M-242.191 436.565C-205.92 449.187 -163.987 444.281 -131.594 423.608C-117.044 414.32 -104.38 402.097 -89.0958 394.088C-58.8625 378.237 -22.6118 380.795 11.2067 385.345C45.0253 389.895 80.0599 395.975 112.725 386.079C132.916 379.957 150.842 368.09 167.804 355.531C184.619 343.077 200.826 329.826 216.362 315.8" stroke="white" stroke-width="4" stroke-miterlimit="10"/>
<path d="M-217.43 507.138C-179.628 513.931 -138.975 502.525 -110.23 477.051C-97.3146 465.604 -86.7267 451.556 -72.868 441.241C-45.4861 420.862 -9.27737 417.717 24.8347 416.92C58.9468 416.123 94.5056 416.648 125.2 401.762C144.196 392.557 160.025 378.028 174.827 362.974C189.483 348.046 203.425 332.405 216.571 316.135" stroke="white" stroke-width="4" stroke-miterlimit="10"/>
<path d="M-181.913 572.972C-143.524 573.769 -105.156 556.136 -80.7303 526.49C-69.765 513.155 -61.5043 497.619 -49.4277 485.27C-25.5681 460.865 9.69712 452.081 43.2641 445.979C76.8311 439.857 112.033 434.804 140.023 415.306C157.341 403.25 170.718 386.414 182.962 369.243C195.123 352.218 206.423 334.586 216.865 316.45" stroke="white" stroke-width="4" stroke-miterlimit="10"/>
<path d="M-136.563 632.432C-98.5097 627.212 -63.3703 603.792 -43.9136 570.687C-35.1707 555.801 -29.4469 539.174 -19.446 525.085C0.283244 497.242 33.7663 483.069 65.9495 471.768C98.1537 460.467 132.119 449.963 156.733 426.334C171.955 411.72 182.522 392.998 191.936 374.107C201.266 355.384 209.694 336.2 217.158 316.66" stroke="white" stroke-width="4" stroke-miterlimit="10"/>
<path d="M-82.4496 684.051C-45.6957 672.939 -14.6447 644.32 -0.597356 608.573C5.71349 592.512 8.77456 575.173 16.4272 559.7C31.5649 529.111 62.4062 509.885 92.4299 493.678C122.475 477.492 154.385 461.809 174.974 434.595C187.722 417.78 195.227 397.631 201.58 377.504C207.87 357.544 213.196 337.29 217.515 316.806" stroke="white" stroke-width="4" stroke-miterlimit="10"/>
<path d="M-20.9346 726.592C13.6388 709.861 39.8256 676.734 48.1073 639.225C51.8393 622.368 52.1328 604.778 57.2695 588.298C67.4382 555.717 94.883 531.899 122.013 511.205C149.144 490.512 178.203 470.028 194.305 439.941C204.264 421.344 208.52 400.273 211.644 379.391C214.747 358.697 216.823 337.856 217.892 316.953" stroke="white" stroke-width="4" stroke-miterlimit="10"/>
<path d="M46.4719 758.964C78.0052 737.033 98.6779 700.216 101.005 661.89C102.053 644.656 99.6004 627.233 102.095 610.145C107.043 576.389 130.421 548.546 153.987 523.869C177.553 499.192 203.048 474.41 214.244 442.185C221.163 422.246 222.085 400.776 221.897 379.663C221.708 358.739 220.513 337.835 218.29 317.016" stroke="white" stroke-width="4" stroke-miterlimit="10"/>
<path d="M118.114 780.412C145.831 753.827 160.486 714.222 156.775 676C155.098 658.808 149.961 641.993 149.752 624.738C149.353 590.625 168.097 559.47 187.512 531.396C206.927 503.322 228.228 474.871 234.246 441.283C237.957 420.505 235.504 399.162 232.023 378.342C228.564 357.711 224.119 337.248 218.668 317.037" stroke="white" stroke-width="4" stroke-miterlimit="10"/>
<path d="M192.229 790.371C215.439 759.781 223.721 718.373 214.076 681.2C209.736 664.49 202.021 648.681 199.127 631.656C193.403 598.027 207.031 564.313 221.813 533.576C236.594 502.819 253.199 471.369 253.87 437.257C254.289 416.165 248.524 395.451 241.835 375.428C235.189 355.594 227.599 336.074 219.045 316.974" stroke="white" stroke-width="4" stroke-miterlimit="10"/>
<path d="M266.995 788.631C285.131 754.77 286.85 712.586 271.503 677.384C264.605 661.554 254.52 647.151 248.985 630.797C238.062 598.467 246.259 563.055 256.051 530.369C265.842 497.682 277.31 464.031 272.656 430.213C269.783 409.309 260.852 389.748 251.103 371.046C241.437 352.491 230.87 334.397 219.443 316.869" stroke="white" stroke-width="4" stroke-miterlimit="10"/>
<path d="M340.566 775.191C353.187 738.92 348.281 696.987 327.608 664.594C318.32 650.044 306.097 637.38 298.088 622.096C282.237 591.863 284.795 555.612 289.345 521.793C293.895 487.975 299.975 452.94 290.079 420.275C283.957 400.084 272.09 382.158 259.531 365.196C247.077 348.381 233.826 332.175 219.8 316.639" stroke="white" stroke-width="4" stroke-miterlimit="10"/>
<path d="M411.138 750.43C417.931 712.628 406.525 671.975 381.051 643.23C369.604 630.315 355.556 619.727 345.241 605.868C324.862 578.486 321.717 542.277 320.92 508.165C320.123 474.053 320.648 438.494 305.762 407.8C296.557 388.804 282.028 372.975 266.974 358.173C252.046 343.517 236.405 329.575 220.135 316.429" stroke="white" stroke-width="4" stroke-miterlimit="10"/>
<path d="M476.972 714.934C477.769 676.545 460.136 638.177 430.49 613.751C417.155 602.786 401.619 594.525 389.27 582.449C364.865 558.589 356.081 523.324 349.979 489.757C343.857 456.19 338.804 420.988 319.306 392.998C307.25 375.679 290.414 362.303 273.243 350.059C256.218 337.898 238.586 326.598 220.45 316.156" stroke="white" stroke-width="4" stroke-miterlimit="10"/>
<path d="M536.432 669.563C531.212 631.51 507.792 596.37 474.687 576.914C459.801 568.171 443.174 562.447 429.085 552.446C401.242 532.717 387.069 499.234 375.768 467.05C364.467 434.846 353.963 400.881 330.334 376.267C315.72 361.045 296.998 350.478 278.107 341.064C259.384 331.734 240.2 323.306 220.66 315.842" stroke="white" stroke-width="4" stroke-miterlimit="10"/>
<path d="M588.051 615.471C576.939 578.717 548.32 547.666 512.573 533.618C496.512 527.307 479.173 524.246 463.7 516.594C433.111 501.456 413.885 470.615 397.678 440.591C381.492 410.546 365.809 378.636 338.595 358.047C321.78 345.299 301.631 337.793 281.504 331.441C261.544 325.151 241.29 319.825 220.806 315.506" stroke="white" stroke-width="4" stroke-miterlimit="10"/>
<path d="M630.592 553.956C613.861 519.382 580.734 493.195 543.225 484.914C526.368 481.182 508.778 480.888 492.298 475.751C459.717 465.583 435.899 438.138 415.205 411.008C394.512 383.877 374.028 354.818 343.941 338.716C325.344 328.757 304.273 324.501 283.391 321.377C262.697 318.274 241.856 316.198 220.953 315.129" stroke="white" stroke-width="4" stroke-miterlimit="10"/>
<path d="M662.964 486.528C641.033 454.995 604.216 434.322 565.89 431.995C548.656 430.947 531.233 433.4 514.145 430.905C480.389 425.957 452.546 402.579 427.869 379.013C403.192 355.447 378.41 329.952 346.185 318.756C326.246 311.837 304.776 310.915 283.663 311.103C262.739 311.292 241.835 312.487 221.016 314.71" stroke="white" stroke-width="4" stroke-miterlimit="10"/>
<path d="M684.412 414.886C657.827 387.169 618.222 372.514 580 376.225C562.808 377.902 545.993 383.039 528.738 383.248C494.626 383.647 463.47 364.903 435.396 345.488C407.322 326.073 378.871 304.772 345.283 298.754C324.505 295.043 303.162 297.496 282.342 300.977C261.711 304.436 241.248 308.881 221.037 314.332" stroke="white" stroke-width="4" stroke-miterlimit="10"/>
<path d="M694.371 340.771C663.781 317.561 622.373 309.279 585.2 318.924C568.49 323.264 552.681 330.979 535.656 333.873C502.027 339.597 468.313 325.969 437.576 311.187C406.819 296.406 375.369 279.801 341.257 279.13C320.165 278.711 299.451 284.476 279.428 291.165C259.594 297.811 240.074 305.401 220.974 313.955" stroke="white" stroke-width="4" stroke-miterlimit="10"/>
<path d="M692.631 266.005C658.77 247.869 616.586 246.15 581.384 261.497C565.554 268.395 551.151 278.48 534.797 284.015C502.467 294.938 467.055 286.741 434.369 276.949C401.682 267.158 368.031 255.69 334.213 260.344C313.309 263.217 293.748 272.148 275.046 281.897C256.491 291.563 238.397 302.13 220.869 313.557" stroke="white" stroke-width="4" stroke-miterlimit="10"/>
<path d="M679.191 192.434C642.92 179.813 600.987 184.719 568.595 205.392C554.044 214.68 541.38 226.903 526.096 234.912C495.863 250.763 459.612 248.205 425.793 243.655C391.975 239.105 356.94 233.025 324.275 242.921C304.084 249.043 286.158 260.91 269.196 273.469C252.381 285.923 236.175 299.174 220.639 313.2" stroke="white" stroke-width="4" stroke-miterlimit="10"/>
<path d="M654.43 121.862C616.628 115.069 575.975 126.475 547.23 151.949C534.315 163.396 523.727 177.444 509.868 187.759C482.486 208.138 446.277 211.283 412.165 212.08C378.053 212.877 342.494 212.352 311.8 227.238C292.804 236.443 276.975 250.972 262.173 266.026C247.517 280.954 233.575 296.595 220.429 312.865" stroke="white" stroke-width="4" stroke-miterlimit="10"/>
<path d="M618.934 56.049C580.545 55.2523 542.177 72.8849 517.751 102.531C506.786 115.866 498.525 131.402 486.449 143.751C462.589 168.156 427.324 176.94 393.757 183.042C360.19 189.164 324.988 194.217 296.998 213.715C279.68 225.771 266.303 242.607 254.059 259.778C241.898 276.803 230.598 294.435 220.156 312.571" stroke="white" stroke-width="4" stroke-miterlimit="10"/>
<path d="M573.563 -3.41125C535.51 1.80934 500.37 25.2286 480.914 58.3343C472.171 73.2204 466.447 89.8466 456.446 103.936C436.717 131.779 403.234 145.952 371.05 157.253C338.846 168.554 304.881 179.058 280.267 202.687C265.045 217.3 254.478 236.023 245.064 254.914C235.734 273.637 227.306 292.821 219.842 312.361" stroke="white" stroke-width="4" stroke-miterlimit="10"/>
<path d="M519.471 -55.0511C482.717 -43.939 451.666 -15.3201 437.618 20.4274C431.307 36.4875 428.246 53.8266 420.594 69.2997C405.456 99.8894 374.615 119.116 344.591 135.322C314.546 151.508 282.636 167.191 262.047 194.405C249.299 211.22 241.793 231.369 235.441 251.496C229.151 271.456 223.825 291.71 219.506 312.194" stroke="white" stroke-width="4" stroke-miterlimit="10"/>
<path d="M457.956 -97.5707C423.382 -80.8396 397.195 -47.713 388.914 -10.2043C385.182 6.65253 384.888 24.2432 379.751 40.7227C369.583 73.3042 342.138 97.1219 315.008 117.816C287.877 138.509 258.818 158.993 242.716 189.08C232.757 207.677 228.501 228.748 225.377 249.63C222.274 270.324 220.198 291.165 219.129 312.068" stroke="white" stroke-width="4" stroke-miterlimit="10"/>
</g>
<path d="M0 0V-4H-4V0H0ZM398 0H402V-4H398V0ZM398 632V636H402V632H398ZM0 632H-4V636H0V632ZM0 4H398V-4H0V4ZM394 0V632H402V0H394ZM398 628H0V636H398V628ZM4 632V0H-4V632H4Z" fill="white" mask="url(#path-1-inside-1_107_6)"/>
<defs>
<clipPath id="clip0_107_6">
<path d="M0 0H398V632H0V0Z" fill="white"/>
</clipPath>
</defs>
</svg>
